<?xml version="1.0" encoding="UTF-8"?>
<svg width="40px" height="40px" viewBox="0 0 40 40" version="1.1" xmlns="http://www.w3.org/2000/svg" xmlns:xlink="http://www.w3.org/1999/xlink">
    <title>4E975233-CB2E-4158-B782-4693AE5F980A</title>
    <g id="Page-1" stroke="none" stroke-width="1" fill="none" fill-rule="evenodd">
        <g id="Visual-Design---Raffle" transform="translate(-265.000000, -1865.000000)">
            <g id="Call-to-action-23" transform="translate(0.000000, 1530.000000)">
                <g id="Content" transform="translate(265.000000, 125.000000)">
                    <g id="1" transform="translate(0.000000, 205.000000)">
                        <g id="Icon/Blur" transform="translate(0.000000, 5.000000)">
                            <path d="M20,4 C28.84,4 36,11.16 36,20 C36,28.84 28.84,36 20,36 C11.16,36 4,28.84 4,20 C4,11.16 11.16,4 20,4 Z M16,29 C15.44,29 15,29.44 15,30 C15,30.56 15.44,31 16,31 C16.56,31 17,30.56 17,30 C17,29.44 16.56,29 16,29 Z M24,29 C23.44,29 23,29.44 23,30 C23,30.56 23.44,31 24,31 C24.56,31 25,30.56 25,30 C25,29.44 24.56,29 24,29 Z M24,22 C22.8954305,22 22,22.8954305 22,24 C22,25.1045695 22.8954305,26 24,26 C25.1045695,26 26,25.1045695 26,24 C26,22.8954305 25.1045695,22 24,22 Z M16,22 C14.8954305,22 14,22.8954305 14,24 C14,25.1045695 14.8954305,26 16,26 C17.1045695,26 18,25.1045695 18,24 C18,22.8954305 17.1045695,22 16,22 Z M10,23 C9.44,23 9,23.44 9,24 C9,24.56 9.44,25 10,25 C10.56,25 11,24.56 11,24 C11,23.44 10.56,23 10,23 Z M30,23 C29.44,23 29,23.44 29,24 C29,24.56 29.44,25 30,25 C30.56,25 31,24.56 31,24 C31,23.44 30.56,23 30,23 Z M24,14 C22.8954305,14 22,14.8954305 22,16 C22,17.1045695 22.8954305,18 24,18 C25.1045695,18 26,17.1045695 26,16 C26,14.8954305 25.1045695,14 24,14 Z M16,14 C14.8954305,14 14,14.8954305 14,16 C14,17.1045695 14.8954305,18 16,18 C17.1045695,18 18,17.1045695 18,16 C18,14.8954305 17.1045695,14 16,14 Z M10,15 C9.44,15 9,15.44 9,16 C9,16.56 9.44,17 10,17 C10.56,17 11,16.56 11,16 C11,15.44 10.56,15 10,15 Z M30,15 C29.44,15 29,15.44 29,16 C29,16.56 29.44,17 30,17 C30.56,17 31,16.56 31,16 C31,15.44 30.56,15 30,15 Z M24,9 C23.44,9 23,9.44 23,10 C23,10.56 23.44,11 24,11 C24.56,11 25,10.56 25,10 C25,9.44 24.56,9 24,9 Z M16,9 C15.44,9 15,9.44 15,10 C15,10.56 15.44,11 16,11 C16.56,11 17,10.56 17,10 C17,9.44 16.56,9 16,9 Z" id="Background"></path>
                            <path d="M24,11 C23.44,11 23,10.56 23,10 C23,9.44 23.44,9 24,9 C24.56,9 25,9.44 25,10 C25,10.56 24.56,11 24,11 Z M24,18 C22.8954305,18 22,17.1045695 22,16 C22,14.8954305 22.8954305,14 24,14 C25.1045695,14 26,14.8954305 26,16 C26,17.1045695 25.1045695,18 24,18 Z M24,26 C22.8954305,26 22,25.1045695 22,24 C22,22.8954305 22.8954305,22 24,22 C25.1045695,22 26,22.8954305 26,24 C26,25.1045695 25.1045695,26 24,26 Z M16,29 C16.56,29 17,29.44 17,30 C17,30.56 16.56,31 16,31 C15.44,31 15,30.56 15,30 C15,29.44 15.44,29 16,29 Z M16,18 C14.8954305,18 14,17.1045695 14,16 C14,14.8954305 14.8954305,14 16,14 C17.1045695,14 18,14.8954305 18,16 C18,17.1045695 17.1045695,18 16,18 Z M10,23 C10.56,23 11,23.44 11,24 C11,24.56 10.56,25 10,25 C9.44,25 9,24.56 9,24 C9,23.44 9.44,23 10,23 Z M20,0 C31.04,0 40,8.96 40,20 C40,31.04 31.04,40 20,40 C8.96,40 0,31.04 0,20 C0,8.96 8.96,0 20,0 Z M20,36 C28.84,36 36,28.84 36,20 C36,11.16 28.84,4 20,4 C11.16,4 4,11.16 4,20 C4,28.84 11.16,36 20,36 Z M10,15 C10.56,15 11,15.44 11,16 C11,16.56 10.56,17 10,17 C9.44,17 9,16.56 9,16 C9,15.44 9.44,15 10,15 Z M16,26 C14.8954305,26 14,25.1045695 14,24 C14,22.8954305 14.8954305,22 16,22 C17.1045695,22 18,22.8954305 18,24 C18,25.1045695 17.1045695,26 16,26 Z M16,11 C15.44,11 15,10.56 15,10 C15,9.44 15.44,9 16,9 C16.56,9 17,9.44 17,10 C17,10.56 16.56,11 16,11 Z M24,29 C24.56,29 25,29.44 25,30 C25,30.56 24.56,31 24,31 C23.44,31 23,30.56 23,30 C23,29.44 23.44,29 24,29 Z M30,15 C30.56,15 31,15.44 31,16 C31,16.56 30.56,17 30,17 C29.44,17 29,16.56 29,16 C29,15.44 29.44,15 30,15 Z M30,23 C30.56,23 31,23.44 31,24 C31,24.56 30.56,25 30,25 C29.44,25 29,24.56 29,24 C29,23.44 29.44,23 30,23 Z" id="Border" fill="#0091FF" fill-rule="evenodd"></path>
                        </g>
                    </g>
                </g>
            </g>
        </g>
    </g>
</svg>