<?xml version="1.0" encoding="UTF-8"?>
<svg width="25px" height="25px" viewBox="0 0 25 25" version="1.1" xmlns="http://www.w3.org/2000/svg" xmlns:xlink="http://www.w3.org/1999/xlink">
    <title>16FE9D14-5E4F-40BC-B061-6637529E989F</title>
    <g id="Page-1" stroke="none" stroke-width="1" fill="none" fill-rule="evenodd">
        <g id="Visual-Design---Landing" transform="translate(-890.000000, -5810.000000)" fill="#D6D6D6">
            <g id="Footer-14" transform="translate(0.000000, 5770.000000)">
                <g id="Content" transform="translate(150.000000, 32.000000)">
                    <g id="Social-Network/Facebook" transform="translate(740.000000, 8.000000)">
                        <path d="M22.5,0 C23.8807119,0 25,1.11928813 25,2.5 L25,22.5 C25,23.8807119 23.8807119,25 22.5,25 L16.25,25 L16.25,15.5882353 L19.4536212,15.5882353 L19.9675775,12.0588235 L16.25,12.0588235 L16.25,10.5505882 C16.25,9.19764706 16.6316646,8.52941176 17.9237605,8.52941176 L17.9237605,8.52941176 L20,8.52941176 L20,5.15411765 C19.6349469,5.10588235 18.8640124,5 17.4062016,5 C14.362091,5 12.5,6.57529412 12.5,10.1635294 L12.5,10.1635294 L12.5,12.0588235 L8.75,12.0588235 L8.75,15.5882353 L12.5,15.5882353 L12.5,25 L2.5,25 C1.11928813,25 0,23.8807119 0,22.5 L0,2.5 C0,1.11928813 1.11928813,0 2.5,0 L22.5,0 Z" id="Facebook"></path>
                    </g>
                </g>
            </g>
        </g>
    </g>
</svg>