<?xml version="1.0" encoding="UTF-8"?>
<svg width="25px" height="25px" viewBox="0 0 25 25" version="1.1" xmlns="http://www.w3.org/2000/svg" xmlns:xlink="http://www.w3.org/1999/xlink">
    <title>D1D12F56-9F40-4B9F-A4AE-A963DC40445C</title>
    <g id="Page-1" stroke="none" stroke-width="1" fill="none" fill-rule="evenodd">
        <g id="Visual-Design---Landing" transform="translate(-990.000000, -5810.000000)" fill="#D6D6D6">
            <g id="Footer-14" transform="translate(0.000000, 5770.000000)">
                <g id="Content" transform="translate(150.000000, 32.000000)">
                    <g id="Social-Network/GitHub" transform="translate(840.000000, 8.000000)">
                        <path d="M23,0 C24.1045695,-2.02906125e-16 25,0.8954305 25,2 L25,23 C25,24.1045695 24.1045695,25 23,25 L16.4332482,25 C16.4451715,24.9104267 16.4680246,24.5179147 16.4680246,24.4132448 L16.4680246,24.4132448 L16.4680246,21.6616345 C16.4680246,20.4408213 15.6721422,18.8204509 14.5811575,18.2437601 C18.5456649,17.8280998 20.4375,15.8283011 20.4375,13.1139291 C20.4375,11.9464573 19.9486434,10.8182367 19.1179848,9.86714976 C19.3952022,8.92310789 19.7439596,6.98570853 19.0166364,6.25 C17.2261497,6.25 16.145101,7.42753623 15.8887494,7.74255233 C14.9964869,7.431562 14.0147993,7.25644122 12.9854184,7.25644122 C11.9580248,7.25644122 10.9803117,7.431562 10.0900364,7.74053945 C9.83070391,7.42351047 8.75064889,6.25 6.96413654,6.25 C6.23979421,6.98470209 6.58457719,8.91404992 6.85881379,9.86010467 C6.02318704,10.8132045 5.53134966,11.9444444 5.53134966,13.1139291 C5.53134966,15.830314 7.4261656,17.8311192 11.3966347,18.2447665 C10.7080623,18.6090982 10.1446849,19.3810386 9.81878058,20.2194042 C9.21267795,20.3160225 8.5688181,20.3411836 8.13858459,20.3411836 C7.25129008,20.3411836 7.02772764,20.1982689 6.55278164,19.5672303 C6.07584842,18.9371981 5.56910687,18.5124799 4.95803618,18.3373591 C4.62716376,18.3021337 4.40856937,18.5628019 4.69572291,18.7912641 C5.6634999,19.477657 5.73106544,20.599839 6.12155452,21.3335346 C6.47329277,21.9937601 7.19862871,22.3490338 8.01438323,22.3490338 L8.01438323,22.3490338 L9.51274843,22.3490338 L9.51274843,24.4132448 C9.51274843,24.6477456 9.54851842,24.8369565 9.60416063,25 L9.60416063,25 L2,25 C0.8954305,25 1.3527075e-16,24.1045695 0,23 L0,2 C-1.3527075e-16,0.8954305 0.8954305,2.02906125e-16 2,0 L23,0 Z" id="GitHub"></path>
                    </g>
                </g>
            </g>
        </g>
    </g>
</svg>