<?xml version="1.0" encoding="UTF-8"?>
<svg width="25px" height="25px" viewBox="0 0 25 25" version="1.1" xmlns="http://www.w3.org/2000/svg" xmlns:xlink="http://www.w3.org/1999/xlink">
    <title>BB24E09F-62F7-4900-B2BC-1CE71F12309F</title>
    <g id="Page-1" stroke="none" stroke-width="1" fill="none" fill-rule="evenodd">
        <g id="Visual-Design---Landing" transform="translate(-1090.000000, -5810.000000)" fill="#D6D6D6">
            <g id="Footer-14" transform="translate(0.000000, 5770.000000)">
                <g id="Content" transform="translate(150.000000, 32.000000)">
                    <g id="Social-Network/Instagram" transform="translate(940.000000, 8.000000)">
                        <path d="M17.5,0 C21.6421356,0 25,3.35786438 25,7.5 L25,17.5 C25,21.6421356 21.6421356,25 17.5,25 L7.5,25 C3.35786438,25 0,21.6421356 0,17.5 L0,7.5 C0,3.35786438 3.35786438,0 7.5,0 L17.5,0 Z M12.5,6.25 C9.053125,6.25 6.25,9.053125 6.25,12.5 C6.25,15.946875 9.053125,18.75 12.5,18.75 C15.946875,18.75 18.75,15.946875 18.75,12.5 C18.75,9.053125 15.946875,6.25 12.5,6.25 Z M20,3.75 C19.375,3.75 18.75,4.375 18.75,5 C18.75,5.625 19.375,6.25 20,6.25 C20.625,6.25 21.25,5.625 21.25,5 C21.25,4.375 20.625,3.75 20,3.75 Z M12.5,8.75 C10.4289322,8.75 8.75,10.4289322 8.75,12.5 C8.75,14.5710678 10.4289322,16.25 12.5,16.25 C14.5710678,16.25 16.25,14.5710678 16.25,12.5 C16.25,10.4289322 14.5710678,8.75 12.5,8.75 Z" id="Instagram"></path>
                    </g>
                </g>
            </g>
        </g>
    </g>
</svg>