<?xml version="1.0" encoding="UTF-8"?>
<svg width="25px" height="25px" viewBox="0 0 25 25" version="1.1" xmlns="http://www.w3.org/2000/svg" xmlns:xlink="http://www.w3.org/1999/xlink">
    <title>CE20B3A5-AC5F-47CB-B9CA-D08ADE6EB511</title>
    <g id="Page-1" stroke="none" stroke-width="1" fill="none" fill-rule="evenodd">
        <g id="Visual-Design---Landing" transform="translate(-940.000000, -5810.000000)" fill="#D6D6D6">
            <g id="Footer-14" transform="translate(0.000000, 5770.000000)">
                <g id="Content" transform="translate(150.000000, 32.000000)">
                    <g id="Social-Network/Linkedin" transform="translate(790.000000, 8.000000)">
                        <path d="M22.5,0 C23.8807119,0 25,1.11928813 25,2.5 L25,22.5 C25,23.8807119 23.8807119,25 22.5,25 L2.5,25 C1.11928813,25 6.66133815e-15,23.8807119 6.66133815e-15,22.5 L6.66133815e-15,2.5 C6.66133815e-15,1.11928813 1.11928813,0 2.5,0 L22.5,0 Z M8.67119089,9.20457727 L5.31304729,9.20457727 L5.31304729,20 L8.67119089,20 L8.67119089,9.20457727 Z M17.221366,8.93617021 C15.5878284,8.93617021 14.492732,9.8312395 14.0442207,10.6796788 L14.0442207,10.6796788 L13.9986865,10.6796788 L13.9986865,9.20457727 L10.7771454,9.20457727 L10.7771454,20 L14.1330123,20 L14.1330123,14.6591545 C14.1330123,13.2511548 14.4016637,11.8875105 16.1490368,11.8875105 C17.871366,11.8875105 17.8941331,13.4979528 17.8941331,14.75014 L17.8941331,14.75014 L17.8941331,20 L21.25,20 L21.25,14.0791223 C21.25,11.1721375 20.6216287,8.93617021 17.221366,8.93617021 Z M6.95796848,3.75 C5.8765324,3.75 5,4.62573488 5,5.70504969 C5,6.7843645 5.87539405,7.6612367 6.95796848,7.6612367 C8.03712785,7.6612367 8.9147986,6.7843645 8.9147986,5.70504969 C8.9147986,4.6268722 8.03712785,3.75 6.95796848,3.75 Z" id="Linkedin"></path>
                    </g>
                </g>
            </g>
        </g>
    </g>
</svg>