<?xml version="1.0" encoding="UTF-8"?>
<svg width="25px" height="25px" viewBox="0 0 25 25" version="1.1" xmlns="http://www.w3.org/2000/svg" xmlns:xlink="http://www.w3.org/1999/xlink">
    <title>12DB604C-8E9B-4DFE-8834-54F5B98E8E23</title>
    <g id="Page-1" stroke="none" stroke-width="1" fill="none" fill-rule="evenodd">
        <g id="Visual-Design---Landing" transform="translate(-1040.000000, -5810.000000)" fill="#D6D6D6">
            <g id="Footer-14" transform="translate(0.000000, 5770.000000)">
                <g id="Content" transform="translate(150.000000, 32.000000)">
                    <g id="Social-Network/Twitter" transform="translate(890.000000, 8.000000)">
                        <path d="M22.5,2.88657986e-14 C23.8807119,2.88657986e-14 25,1.11928813 25,2.5 L25,22.5 C25,23.8807119 23.8807119,25 22.5,25 L2.5,25 C1.11928813,25 1.55431223e-14,23.8807119 1.55431223e-14,22.5 L1.55431223e-14,2.5 C1.55431223e-14,1.11928813 1.11928813,2.88657986e-14 2.5,2.88657986e-14 L22.5,2.88657986e-14 Z M15.8655917,5.625 C13.8827834,5.625 12.2755375,7.17967604 12.2755375,9.09617706 C12.2755375,9.36819655 12.3078439,9.63370841 12.3684185,9.88685574 C9.38478328,9.74238606 6.7396927,8.36016257 4.96822238,6.25949524 C4.659965,6.77229755 4.48295258,7.3683977 4.48295258,8.005496 C4.48295258,9.20941005 5.1162936,10.2721082 6.07942964,10.894239 C5.49118303,10.8760176 4.93726203,10.7198341 4.45333833,10.4601791 L4.45333833,10.5037803 L4.45333833,10.5037803 C4.45333833,12.1860062 5.69040614,13.5890541 7.33332372,13.9072779 C7.03246991,13.9866712 6.71478982,14.0289708 6.38701396,14.0289708 C6.15615746,14.0289708 5.93068536,14.0068449 5.71194377,13.9671482 C6.16894543,15.3461179 7.49485597,16.3502473 9.06575709,16.3782302 C7.83743894,17.3094739 6.28942156,17.8645759 4.60679397,17.8645759 C4.31738202,17.8645759 4.03133533,17.8483068 3.75,17.8157686 C5.3390735,18.8003751 7.22563555,19.375 9.25353833,19.375 C15.8575151,19.375 19.4677609,14.0855873 19.4677609,9.49834942 C19.4677609,9.34802286 19.4643956,9.19834706 19.4576651,9.04932202 C20.1596573,8.55929646 20.7687685,7.94822874 21.25,7.25256165 C20.6058902,7.52913649 19.9139937,7.7152551 19.1877716,7.7992037 C19.9294739,7.36969923 20.498202,6.68965048 20.7660763,5.8787981 C20.0728337,6.27641512 19.3042095,6.56535449 18.4857794,6.72153793 C17.8309007,6.0466953 16.898052,5.625 15.8655917,5.625 Z" id="Twitter"></path>
                    </g>
                </g>
            </g>
        </g>
    </g>
</svg>