<?xml version="1.0" encoding="UTF-8"?>
<svg width="200px" height="153px" viewBox="0 0 200 153" version="1.1" xmlns="http://www.w3.org/2000/svg" xmlns:xlink="http://www.w3.org/1999/xlink">
    <title>CA18373F-CC16-4986-8BD5-D90C688B16FD</title>
    <g id="Page-1" stroke="none" stroke-width="1" fill="none" fill-rule="evenodd" stroke-linecap="round" stroke-linejoin="round">
        <g id="Visual-Design---All-Raffles-header-3" transform="translate(-1090.000000, -170.000000)" stroke="#FFFFFF">
            <g id="18-tickets" transform="translate(1090.000000, 170.000000)">
                <line x1="55.0217391" y1="148.891304" x2="54.9782609" y2="148.891304" id="Path"></line>
                <path d="M33.6956522,138.630435 L31.9347826,138.152174 C30.6664731,137.715158 29.734574,136.625168 29.5,135.304348 L29.0869565,131.717391 C28.8657487,130.390296 27.9287595,129.294353 26.6521739,128.869565 L23.173913,127.891304 C21.9170261,127.449278 21.0005812,126.357875 20.7826087,125.043478 L20.326087,121.456522 C20.1081145,120.142125 19.1916695,119.050722 17.9347826,118.608696 L14.4565217,117.630435 C13.1882123,117.193419 12.2563131,116.103429 12.0217391,114.782609 L11.6086957,111.195652 C11.3758745,109.845239 10.5872518,108.654418 9.43478261,107.913043 L3.34782609,104.73913 C2.73930201,104.447921 2.30045608,103.890703 2.15997703,103.230877 C2.01949798,102.571051 2.19330666,101.883397 2.63043478,101.369565 C6.07810803,96.8928418 6.37304161,90.7426092 3.36956522,85.9565217 C2.73934016,85.014913 2.93802011,83.7471457 3.82608696,83.0434783 L99.4782609,1.5 C100.305694,0.753220574 101.563872,0.753220574 102.391304,1.5 C106.644997,5.22504945 112.767301,5.91012313 117.73913,3.2173913 C118.315594,2.86549026 119.022871,2.80150613 119.653129,3.04424055 C120.283387,3.28697497 120.765027,3.80885301 120.956522,4.45652174 L123.130435,10.9782609 C123.640556,12.312437 124.72771,13.3436342 126.086957,13.7826087 L129.521739,14.7826087 C130.798325,15.2073965 131.735314,16.3033393 131.956522,17.6304348 L132.369565,21.2173913 C132.607357,22.5247257 133.528688,23.6037619 134.782609,24.0434783 L138.26087,25.0217391 C139.526222,25.4514594 140.447786,26.548959 140.652174,27.8695652 L141.108696,31.4565217 C141.342632,32.7515713 142.24385,33.8264186 143.478261,34.2826087 L146.956522,35.2608696 C148.233107,35.6856573 149.170097,36.7816001 149.391304,38.1086957 L149.804348,41.6956522 C150.027708,43.0384418 150.820225,44.2192924 151.978261,44.9347826 L158.065217,48.1521739 C158.673741,48.4433833 159.112587,49.0006013 159.253066,49.6604271 C159.393545,50.3202529 159.219737,51.007907 158.782609,51.5217391 C158.586957,51.7391304 158.456522,51.9782609 158.26087,52.2391304" id="Path"></path>
                <path d="M39.673913,146.021739 L39.673913,146.021739 L40.4565217,148.326087 C40.6472655,148.960148 41.1334017,149.462488 41.7608696,149.673913 C42.3809862,149.935825 43.0874544,149.895685 43.673913,149.565217 C44.1627835,149.288905 44.6714167,149.049121 45.1956522,148.847826 L45.1956522,148.847826" id="Path"></path>
                <path d="M33.2173913,107.043478 L22.6086957,94.5652174 C19.9575684,91.4190874 20.3358492,86.7245252 23.4565217,84.0434783 L33.4347826,75.5652174" id="Path"></path>
                <path d="M60.8695652,52.173913 L97.3913043,21.1086957 C100.537434,18.4575684 105.231997,18.8358492 107.913043,21.9565217 L133.630435,52.173913" id="Path"></path>
                <path d="M116.065217,52.173913 L114.913043,51.1956522 C113.915314,50.2297036 113.370768,48.888068 113.413043,47.5 L113.521739,46 C113.630435,44.7608696 112.891304,44.326087 111.847826,44.9565217 L110.586957,45.7826087 C109.37035,46.4385028 107.933041,46.549065 106.630435,46.0869565 L105.23913,45.5 C104.108696,45.0217391 103.413043,45.5 103.717391,46.7608696 L104.086957,48.2608696 C104.362822,49.6424962 104.012568,51.0753527 103.130435,52.173913 L103.130435,52.173913" id="Path"></path>
                <line x1="86.1956522" y1="48.2826087" x2="81.6086957" y2="52.1956522" id="Path"></line>
                <path d="M57.2826087,151.130435 C56.1769007,151.138421 55.2413552,150.315141 55.1086957,149.217391 C54.296779,143.623976 50.0760774,139.134052 44.5434783,137.978261 C43.8813675,137.867566 43.3075355,137.457187 42.9887654,136.8664 C42.6699952,136.275612 42.6420469,135.570692 42.9130435,134.956522 L45.4565217,128.586957 C45.8903464,127.276912 45.7398855,125.843575 45.0434783,124.652174 L43.0434783,121.652174 C42.3609552,120.507028 42.3609552,119.079928 43.0434783,117.934783 L45.0434783,114.956522 C45.7260013,113.811376 45.7260013,112.384276 45.0434783,111.23913 L43.0434783,108.23913 C42.3570751,107.087257 42.3570751,105.651873 43.0434783,104.5 L45.0434783,101.5 C45.7260013,100.354854 45.7260013,98.9277543 45.0434783,97.7826087 L43.0434783,94.7826087 C42.3656774,93.6361671 42.3656774,92.211659 43.0434783,91.0652174 L45.0434783,88.0652174 C45.7426423,86.8747218 45.893231,85.4401657 45.4565217,84.1304348 L42.9130435,77.7608696 C42.6420469,77.1466995 42.6699952,76.4417789 42.9887654,75.8509916 C43.3075355,75.2602043 43.8813675,74.8498253 44.5434783,74.7391304 C50.0760774,73.5833389 54.296779,69.0934156 55.1086957,63.5 C55.2413552,62.4022499 56.1769007,61.5789698 57.2826087,61.5868989 L183.043478,61.5868989 C184.149186,61.5789698 185.084732,62.4022499 185.217391,63.5 C186.029308,69.0934156 190.25001,73.5833389 195.782609,74.7391304 C196.444719,74.8498253 197.018551,75.2602043 197.337322,75.8509916 C197.656092,76.4417789 197.68404,77.1466995 197.413043,77.7608696 L194.869565,84.1304348 C194.435741,85.4404788 194.586201,86.8738165 195.282609,88.0652174 L197.282609,91.0652174 C197.965132,92.210363 197.965132,93.6374631 197.282609,94.7826087 L195.326087,97.826087 C194.648286,98.9725286 194.648286,100.397037 195.326087,101.543478 L197.326087,104.543478 C198.017282,105.694027 198.017282,107.13206 197.326087,108.282609 L195.326087,111.282609 C194.648286,112.42905 194.648286,113.853558 195.326087,115 L197.326087,117.978261 C198.00861,119.123406 198.00861,120.550507 197.326087,121.695652 L195.326087,124.695652 C194.626923,125.886148 194.476334,127.320704 194.913043,128.630435 L197.456522,135 C197.727518,135.61417 197.69957,136.319091 197.3808,136.909878 C197.06203,137.500665 196.488198,137.911044 195.826087,138.021739 C190.285004,139.169467 186.053965,143.661144 185.23913,149.26087 C185.106471,150.35862 184.170925,151.1819 183.065217,151.173971 L57.2826087,151.130435 Z" id="Path"></path>
                <path d="M168.695652,137.695652 L71.6304348,137.695652 C67.5123115,137.695652 64.173913,134.357254 64.173913,130.23913 L64.173913,82.4130435 C64.173913,78.2949202 67.5123115,74.9565217 71.6304348,74.9565217 L168.695652,74.9565217 C172.796773,74.9923751 176.09907,78.3335228 176.08699,82.4347826 L176.08699,130.26087 C176.075205,134.345181 172.779824,137.659946 168.695652,137.695652 Z" id="Path"></path>
                <path d="M81.4782609,98.6304348 C82.0217391,97.5217391 82.9130435,97.5217391 83.4565217,98.6304348 L84.1304348,99.9782609 C84.8173929,101.181212 85.9901662,102.029096 87.3478261,102.304348 L88.8478261,102.521739 C90.0652174,102.695652 90.3478261,103.543478 89.4565217,104.413043 L88.3695652,105.456522 C87.4404326,106.475943 86.9966639,107.846871 87.1521739,109.217391 L87.4130435,110.717391 C87.6304348,111.934783 86.8913043,112.456522 85.8043478,111.891304 L84.4565217,111.195652 C83.1995058,110.624559 81.7570159,110.624559 80.5,111.195652 L79.1521739,111.891304 C78.0652174,112.456522 77.3478261,111.891304 77.5434783,110.717391 L77.8043478,109.217391 C77.9598578,107.846871 77.5160892,106.475943 76.5869565,105.456522 L75.5,104.413043 C74.6086957,103.565217 74.8913043,102.695652 76.1086957,102.521739 L77.6086957,102.304348 C78.9555133,102.031038 80.1196781,101.191572 80.8043478,100 L81.4782609,98.6304348 Z" id="Path"></path>
                <path d="M158.847826,98.6304348 C158.304348,97.5217391 157.413043,97.5217391 156.869565,98.6304348 L156.195652,99.9782609 C155.510871,101.183166 154.337094,102.031776 152.978261,102.304348 L151.478261,102.521739 C150.26087,102.695652 149.978261,103.543478 150.869565,104.413043 L151.956522,105.456522 C152.885654,106.475943 153.329423,107.846871 153.173913,109.217391 L152.913043,110.717391 C152.695652,111.934783 153.434783,112.456522 154.521739,111.891304 L155.847826,111.195652 C157.104842,110.624559 158.547332,110.624559 159.804348,111.195652 L161.130435,111.891304 C162.217391,112.456522 162.934783,111.891304 162.73913,110.717391 L162.478261,109.217391 C162.322751,107.846871 162.76652,106.475943 163.695652,105.456522 L164.782609,104.413043 C165.673913,103.543478 165.391304,102.695652 164.173913,102.521739 L162.673913,102.304348 C161.343205,102.019664 160.19678,101.181588 159.521739,100 L158.847826,98.6304348 Z" id="Path"></path>
                <line x1="97.7608696" y1="88.4130435" x2="142.565217" y2="88.4130435" id="Path"></line>
                <line x1="104.478261" y1="101.847826" x2="135.847826" y2="101.847826" id="Path"></line>
                <line x1="88.8043478" y1="124.23913" x2="151.521739" y2="124.23913" id="Path"></line>
            </g>
        </g>
    </g>
</svg>