<?xml version="1.0" encoding="UTF-8"?>
<svg width="175px" height="159px" viewBox="0 0 175 159" version="1.1" xmlns="http://www.w3.org/2000/svg" xmlns:xlink="http://www.w3.org/1999/xlink">
    <title>09393C16-473E-402C-9615-F1DAA7918CEC</title>
    <g id="Page-1" stroke="none" stroke-width="1" fill="none" fill-rule="evenodd">
        <g id="Visual-Design---All-Raffles-header-4" transform="translate(-152.000000, -162.000000)">
            <g id="18-tickets" transform="translate(153.000000, 163.000000)">
                <g id="Scene">
                    <ellipse id="Oval" fill="#191816" fill-rule="nonzero" opacity="0.15" cx="97.6702986" cy="153.089351" rx="65.6813559" ry="4.90601927"></ellipse>
                    <path d="M52.8103793,132.176123 C52.0836927,132.834123 50.9753442,132.834123 50.2486575,132.176123 C46.5010318,128.921165 41.1235242,128.328697 36.7549368,130.689451 C36.2274115,130.940796 35.6143641,130.940796 35.0868388,130.689451 C34.5308899,130.485322 34.1015914,130.034827 33.9251278,129.470379 L31.9889427,123.880491 C31.5457996,122.752447 30.6322507,121.873122 29.4867958,121.472081 L26.5080495,120.609811 C25.3955623,120.230335 24.5826865,119.270367 24.3931396,118.112201 L24.0356901,115.138856 C23.8227523,113.981924 23.0038243,113.02824 21.8909927,112.641246 L18.9122464,111.778976 C17.7997592,111.399501 16.9868834,110.439532 16.7973366,109.281367 L16.2611622,106.04042 C16.0716153,104.882255 15.2587396,103.922287 14.1462524,103.542811 L11.1675061,102.680541 C10.0546745,102.293547 9.23574648,101.339863 9.02280872,100.182931 L8.66535916,97.2095858 C8.48153105,95.9775125 7.76203536,94.8893442 6.6993866,94.2362408 L1.33764326,91.4412965 C0.822287898,91.1625578 0.455743983,90.6717713 0.335280564,90.0991762 C0.214817144,89.526581 0.352614838,88.9300749 0.712106538,88.4679514 C3.74226045,84.5414164 4.0152501,79.1507616 1.39721819,74.9392316 C0.869854633,74.1197392 1.03581502,73.0365812 1.78445521,72.4118884 L85.9340382,0.694806657 C86.6803976,0.058840521 87.7791881,0.058840521 88.5255475,0.694806657 C92.2731732,3.94976488 97.6506808,4.54223251 102.019268,2.18147916 C102.532046,1.89440445 103.146623,1.85147087 103.694461,2.06445237 C104.242299,2.27743388 104.665892,2.72397462 104.849077,3.28161682 L106.755475,8.99043924 C107.21835,10.1158374 108.138981,10.9915539 109.287409,11.3988487 L112.266156,12.2611188 C113.382661,12.6427213 114.203814,13.5989963 114.410853,14.7587286 L114.79809,17.9104743 C114.987637,19.0686399 115.800512,20.0286082 116.913,20.4080841 L119.891746,21.2703541 C121.011999,21.646426 121.835454,22.6053809 122.036443,23.767964 L122.393893,26.8899762 C122.606831,28.0469087 123.425759,29.0005924 124.53859,29.387586 L127.517337,30.2498561 C128.629824,30.6293319 129.4427,31.5893003 129.632246,32.7474659 L130.019483,35.7208109 C130.195351,36.9559112 130.916889,38.0471691 131.985456,38.6941559 L137.317412,41.4891002 C137.828033,41.7736076 138.195497,42.2590749 138.330186,42.8271055 C138.440931,43.4024042 138.300012,43.997519 137.942949,44.4624453 C134.922121,48.39531 134.661011,53.7857324 137.287624,57.9911651 C137.805667,58.8226848 137.641504,59.9067149 136.900387,60.5482418 L52.8103793,132.176123 Z" id="Path" fill="#6DD627" fill-rule="nonzero"></path>
                    <path d="M0.414231907,88.9139532 L102.58523,1.97334501 C102.392544,2.01922125 102.203404,2.07884129 102.019268,2.15174571 C97.6506808,4.51249906 92.2731732,3.92003143 88.5255475,0.665073207 C87.7791881,0.0291070709 86.6803976,0.0291070709 85.9340382,0.665073207 L1.60573043,72.2929546 C0.85709024,72.9176474 0.691129855,74.0008054 1.21849341,74.8202978 C3.83652532,79.0318278 3.56353568,84.4224826 0.533381759,88.3490176 C0.465112575,88.5301848 0.424933679,88.7206885 0.414231907,88.9139532 Z" id="Path" fill="#9CEB60" fill-rule="nonzero"></path>
                    <path d="M52.8103793,132.176123 C52.0836927,132.834123 50.9753442,132.834123 50.2486575,132.176123 C46.5010318,128.921165 41.1235242,128.328697 36.7549368,130.689451 C36.2274115,130.940796 35.6143641,130.940796 35.0868388,130.689451 C34.5308899,130.485322 34.1015914,130.034827 33.9251278,129.470379 L31.9889427,123.880491 C31.5457996,122.752447 30.6322507,121.873122 29.4867958,121.472081 L26.5080495,120.609811 C25.3955623,120.230335 24.5826865,119.270367 24.3931396,118.112201 L24.0356901,115.138856 C23.8227523,113.981924 23.0038243,113.02824 21.8909927,112.641246 L18.9122464,111.778976 C17.7997592,111.399501 16.9868834,110.439532 16.7973366,109.281367 L16.2611622,106.04042 C16.0716153,104.882255 15.2587396,103.922287 14.1462524,103.542811 L11.1675061,102.680541 C10.0546745,102.293547 9.23574648,101.339863 9.02280872,100.182931 L8.66535916,97.2095858 C8.48153105,95.9775125 7.76203536,94.8893442 6.6993866,94.2362408 L1.33764326,91.4412965 C0.827915826,91.1622993 0.468023068,90.6724263 0.354656981,90.1032912 C0.231553676,89.53223 0.361891719,88.9359305 0.712106538,88.4679514 C3.74226045,84.5414164 4.0152501,79.1507616 1.39721819,74.9392316 C0.869854633,74.1197392 1.03581502,73.0365812 1.78445521,72.4118884 L85.9340382,0.694806657 C86.6803976,0.058840521 87.7791881,0.058840521 88.5255475,0.694806657 C92.2731732,3.94976488 97.6506808,4.54223251 102.019268,2.18147916 C102.532046,1.89440445 103.146623,1.85147087 103.694461,2.06445237 C104.242299,2.27743388 104.665892,2.72397462 104.849077,3.28161682 L106.755475,8.99043924 C107.21835,10.1158374 108.138981,10.9915539 109.287409,11.3988487 L112.266156,12.2611188 C113.382661,12.6427213 114.203814,13.5989963 114.410853,14.7587286 L114.79809,17.9104743 C114.987637,19.0686399 115.800512,20.0286082 116.913,20.4080841 L119.891746,21.2703541 C121.011999,21.646426 121.835454,22.6053809 122.036443,23.767964 L122.393893,26.8899762 C122.606831,28.0469087 123.425759,29.0005924 124.53859,29.387586 L127.517337,30.2498561 C128.629824,30.6293319 129.4427,31.5893003 129.632246,32.7474659 L130.019483,35.7208109 C130.195351,36.9559112 130.916889,38.0471691 131.985456,38.6941559 L137.317412,41.4891002 C137.828033,41.7736076 138.195497,42.2590749 138.330186,42.8271055 C138.440931,43.4024042 138.300012,43.997519 137.942949,44.4624453 C134.922121,48.39531 134.661011,53.7857324 137.287624,57.9911651 C137.805667,58.8226848 137.641504,59.9067149 136.900387,60.5482418 L52.8103793,132.176123 Z" id="Path" stroke="#191816" stroke-linecap="round" stroke-linejoin="round"></path>
                    <path d="M22.1478983,38.8415418 L116.609736,38.926152 C117.712906,38.9271402 118.606956,39.8211894 118.607944,40.9243593 L118.653736,92.0327407 C118.654725,93.1373097 117.760097,94.0335422 116.655528,94.0345318 C116.654334,94.0345329 116.653139,94.0345329 116.651945,94.0345318 L22.1901069,93.9499216 C21.086937,93.9489335 20.1928875,93.0548843 20.1918991,91.9517143 L20.1461077,40.8433329 C20.145118,39.7387639 21.0397459,38.8425315 22.144315,38.8415418 C22.1455094,38.8415407 22.1467039,38.8415407 22.1478983,38.8415418 Z" id="Rectangle" stroke="#191816" fill="#46B000" fill-rule="nonzero" stroke-linecap="round" stroke-linejoin="round" transform="translate(69.399922, 66.438037) rotate(-40.410000) translate(-69.399922, -66.438037) "></path>
                    <path d="M47.0018241,81.4805907 C46.7239811,81.4972843 46.4560731,81.5898535 46.22735,81.7481917 L45.0954264,82.4320611 C44.4743035,82.7996888 43.7619732,82.9851772 43.0400915,82.9672632 C42.5598606,82.9761608 42.0830459,82.8850214 41.6400807,82.6996621 L40.3294323,82.2536604 C40.1138147,82.2040787 39.8897258,82.2040787 39.6741082,82.2536604 C39.0783589,82.2536604 38.7804843,82.7293956 38.9889965,83.5321987 L39.3166586,84.8107371 C39.5374645,86.0076881 39.2338214,87.2417077 38.4826096,88.2003504 L37.6187732,89.1815542 C36.9038741,90.0140909 37.2017487,90.7276937 38.2740974,90.7871606 L39.6145332,90.7871606 C40.8251271,90.9502319 41.9086382,91.6207907 42.5932795,92.6306345 L43.2486037,93.7605056 C43.4118726,94.1191396 43.7504815,94.3670025 44.1422276,94.4146415 C44.4698897,94.4146415 44.7975518,94.1470404 45.006064,93.6415718 L45.4826634,92.3927669 C46.002964,91.2965187 46.9675777,90.4742973 48.1337476,90.1330247 L49.444396,89.8356902 C50.4869572,89.5978226 50.6954695,88.8544863 49.8614205,88.1706169 L48.8188593,87.3083469 C47.9280773,86.4838427 47.4482694,85.3082679 47.5082109,84.0971343 L47.5082109,82.759129 C47.5082109,82.0157928 47.2699112,81.5995245 46.7933118,81.5995245 L47.0018241,81.4805907 Z" id="Shape" fill="#FFFFFF" fill-rule="nonzero"></path>
                    <path d="M90.9681195,39.2590915 C89.9553457,38.8428232 89.3595964,39.2590915 89.6276836,40.3889626 L89.9553457,41.6675009 C90.1965194,42.860402 89.9026555,44.0989107 89.1510842,45.0571143 L88.2574603,46.0680516 C87.5425612,46.8708547 87.8404358,47.5844575 88.942572,47.6736579 L90.2532203,47.6736579 C91.461333,47.8222428 92.5467565,48.4831505 93.2319666,49.4873983 L93.8872908,50.6470029 C94.4532526,51.5687398 95.2277267,51.5092729 95.6447511,50.6470029 L96.1213506,49.4279314 C96.6450707,48.3227779 97.6229855,47.4984807 98.8022222,47.1681892 L100.083083,46.8708547 C101.155432,46.6329871 101.334157,45.8599174 100.500108,45.1760481 L99.4873339,44.313778 C98.5989784,43.4853876 98.1106444,42.3155111 98.146898,41.1025654 L98.146898,39.7942936 C98.146898,38.7238894 97.5809362,38.3076211 96.6575249,38.8725566 L95.5256013,39.5861594 C94.4649755,40.1638886 93.2074618,40.2612774 92.0702556,39.8537605 L90.9681195,39.2590915 Z" id="Path" stroke="#191816" fill="#C8FFA1" fill-rule="nonzero"></path>
                    <line x1="44.1720151" y1="67.2085346" x2="74.1679903" y2="41.6972344" id="Path" stroke="#191816" stroke-linecap="round" stroke-linejoin="round"></line>
                    <line x1="56.3253" y1="72.3821549" x2="77.3254614" y2="54.5123514" id="Path" stroke="#191816" stroke-linecap="round" stroke-linejoin="round"></line>
                    <line x1="58.5891472" y1="96.2581154" x2="100.58947" y2="60.5779752" id="Path" stroke="#191816" stroke-linecap="round" stroke-linejoin="round"></line>
                    <path d="M48.7294969,131.997722 C47.7467171,132.005178 46.9142444,131.276487 46.7933118,130.302916 C46.0386794,125.357687 42.2647437,121.412341 37.350686,120.43141 C36.7757664,120.324033 36.2802867,119.962989 36.0026423,119.449124 C35.7249979,118.935258 35.6949487,118.323651 35.9208878,117.785133 L38.1549475,112.195245 C38.5451135,111.038574 38.4147632,109.769963 37.797498,108.716431 L36.1591875,106.04042 C35.5613023,105.031868 35.5613023,103.778294 36.1591875,102.769741 L37.9166478,100.153197 C38.514533,99.1446446 38.514533,97.8910706 37.9166478,96.8825178 L36.1591875,94.2362408 C35.5613023,93.227688 35.5613023,91.974114 36.1591875,90.9655613 L37.9166478,88.3490176 C38.514533,87.3404649 38.514533,86.0868909 37.9166478,85.0783381 L36.1591875,82.4320611 C35.5613023,81.4235083 35.5613023,80.1699343 36.1591875,79.1613816 L37.9166478,76.5448379 C38.5377544,75.4925622 38.6682802,74.2222434 38.2740974,73.0660243 L36.0400377,67.4761357 C35.8140985,66.937618 35.8441477,66.3260105 36.1217921,65.812145 C36.3994365,65.2982795 36.8949162,64.9372356 37.4698359,64.8298586 C42.3374343,63.8048467 46.0547431,59.8690363 46.7933118,54.9583531 C46.9142444,53.9847822 47.7467171,53.2560914 48.7294969,53.2634898 L159.479284,53.2634898 C160.462064,53.2560914 161.294537,53.9847822 161.415469,54.9583531 C162.154038,59.8690363 165.871347,63.8048467 170.738945,64.8298586 C171.302546,64.9563205 171.783605,65.3203383 172.057816,65.8278501 C172.332028,66.3353618 172.372489,66.9365747 172.168744,67.4761357 L169.904896,73.0660243 C169.519652,74.2265203 169.661079,75.4970592 170.292133,76.5448379 L172.019806,79.1613816 C172.674477,80.1536834 172.674477,81.4397592 172.019806,82.4320611 L170.292133,85.0783381 C169.637463,86.07064 169.637463,87.3567158 170.292133,88.3490176 L172.019806,90.9655613 C172.674477,91.9578631 172.674477,93.2439389 172.019806,94.2362408 L170.292133,96.8825178 C169.637463,97.8748197 169.637463,99.1608955 170.292133,100.153197 L172.019806,102.769741 C172.674477,103.762043 172.674477,105.048119 172.019806,106.04042 L170.292133,108.656964 C169.664918,109.706035 169.523681,110.974863 169.904896,112.135778 L172.049594,117.933801 C172.253339,118.473361 172.212878,119.074574 171.938667,119.582086 C171.664455,120.089598 171.183396,120.453616 170.619796,120.580078 C165.752197,121.605089 162.034888,125.5409 161.29632,130.451583 C161.175387,131.425154 160.342914,132.153845 159.360135,132.146446 L48.7294969,131.997722 Z" id="Path" fill="#FFE500" fill-rule="nonzero"></path>
                    <path d="M161.29632,55.01782 C161.175387,54.0442491 160.342914,53.3155583 159.360135,53.3229567 L48.7294969,53.3229567 C47.7467171,53.3155583 46.9142444,54.0442491 46.7933118,55.01782 C46.0386794,59.9630487 42.2647437,63.9083949 37.350686,64.8893255 C37.1617572,64.9433623 36.9812961,65.0234217 36.8145117,65.1271931 L171.15597,65.1271931 C170.989185,65.0234217 170.808724,64.9433623 170.619796,64.8893255 C165.752197,63.8643136 162.034888,59.9285032 161.29632,55.01782 Z" id="Path" fill="#FFF48C" fill-rule="nonzero"></path>
                    <path d="M48.7294969,131.997722 C47.7467171,132.005178 46.9142444,131.276487 46.7933118,130.302916 C46.0386794,125.357687 42.2647437,121.412341 37.350686,120.43141 C36.7757664,120.324033 36.2802867,119.962989 36.0026423,119.449124 C35.7249979,118.935258 35.6949487,118.323651 35.9208878,117.785133 L38.1549475,112.195245 C38.5451135,111.038574 38.4147632,109.769963 37.797498,108.716431 L36.1591875,106.04042 C35.5613023,105.031868 35.5613023,103.778294 36.1591875,102.769741 L37.9166478,100.153197 C38.514533,99.1446446 38.514533,97.8910706 37.9166478,96.8825178 L36.1591875,94.2362408 C35.5613023,93.227688 35.5613023,91.974114 36.1591875,90.9655613 L37.9166478,88.3490176 C38.514533,87.3404649 38.514533,86.0868909 37.9166478,85.0783381 L36.1591875,82.4320611 C35.5613023,81.4235083 35.5613023,80.1699343 36.1591875,79.1613816 L37.9166478,76.5448379 C38.5377544,75.4925622 38.6682802,74.2222434 38.2740974,73.0660243 L36.0400377,67.4761357 C35.8140985,66.937618 35.8441477,66.3260105 36.1217921,65.812145 C36.3994365,65.2982795 36.8949162,64.9372356 37.4698359,64.8298586 C42.3374343,63.8048467 46.0547431,59.8690363 46.7933118,54.9583531 C46.9142444,53.9847822 47.7467171,53.2560914 48.7294969,53.2634898 L159.479284,53.2634898 C160.462064,53.2560914 161.294537,53.9847822 161.415469,54.9583531 C162.154038,59.8690363 165.871347,63.8048467 170.738945,64.8298586 C171.302546,64.9563205 171.783605,65.3203383 172.057816,65.8278501 C172.332028,66.3353618 172.372489,66.9365747 172.168744,67.4761357 L169.904896,73.0660243 C169.519652,74.2265203 169.661079,75.4970592 170.292133,76.5448379 L172.019806,79.1613816 C172.674477,80.1536834 172.674477,81.4397592 172.019806,82.4320611 L170.292133,85.0783381 C169.637463,86.07064 169.637463,87.3567158 170.292133,88.3490176 L172.019806,90.9655613 C172.674477,91.9578631 172.674477,93.2439389 172.019806,94.2362408 L170.292133,96.8825178 C169.637463,97.8748197 169.637463,99.1608955 170.292133,100.153197 L172.019806,102.769741 C172.674477,103.762043 172.674477,105.048119 172.019806,106.04042 L170.292133,108.656964 C169.664918,109.706035 169.523681,110.974863 169.904896,112.135778 L172.049594,117.933801 C172.253339,118.473361 172.212878,119.074574 171.938667,119.582086 C171.664455,120.089598 171.183396,120.453616 170.619796,120.580078 C165.752197,121.605089 162.034888,125.5409 161.29632,130.451583 C161.175387,131.425154 160.342914,132.153845 159.360135,132.146446 L48.7294969,131.997722 Z" id="Path" stroke="#191816" stroke-linecap="round" stroke-linejoin="round"></path>
                    <rect id="Rectangle" stroke="#191816" fill="#EBCB00" fill-rule="nonzero" stroke-linecap="round" stroke-linejoin="round" x="54.7763519" y="65.1271931" width="98.5071402" height="55.0663496" rx="2"></rect>
                    <path d="M70.1168953,85.9108747 C70.5934948,84.9296709 71.3977563,84.9296709 71.8743557,85.9108747 L72.4701049,87.1002127 C73.0718987,88.1475729 74.0887374,88.8926224 75.2701264,89.1518208 L76.5807748,89.3302215 C77.6531235,89.3302215 77.9212107,90.222225 77.1467366,90.9952947 L76.1935378,91.9170317 C75.3646299,92.8059146 74.962574,94.0098954 75.0914017,95.2174446 L75.3297014,96.5257164 C75.5084262,97.5961206 74.8828894,98.0718558 73.9296906,97.5663872 L72.7381921,96.9419847 C71.6313042,96.4381677 70.3599468,96.4381677 69.2530589,96.9419847 L68.0913479,97.5663872 C67.1083616,98.0718558 66.4828249,97.5663872 66.6615496,96.5257164 L66.8998493,95.2174446 C67.0366343,94.0143523 66.6456423,92.8109797 65.8275007,91.9170317 L64.8743019,90.9952947 C64.0998278,90.222225 64.3381275,89.4788887 65.4104762,89.3302215 L66.7211246,89.1518208 C67.9654851,88.9323922 69.0527047,88.183571 69.6998709,87.1002127 L70.1168953,85.9108747 Z" id="Path" stroke="#191816" fill="#FFFACF" fill-rule="nonzero"></path>
                    <path d="M138.062098,85.9108747 C137.585499,84.9296709 136.811025,84.9296709 136.334426,85.9108747 L135.738676,87.1002127 C135.09151,88.183571 134.004291,88.9323922 132.75993,89.1518208 L131.449282,89.3302215 C130.376933,89.3302215 130.138633,90.222225 130.913107,90.9952947 L131.866306,91.9170317 C132.684448,92.8109797 133.07544,94.0143523 132.938655,95.2174446 L132.730143,96.5257164 C132.551418,97.5961206 133.176955,98.0421224 134.130153,97.5663872 L135.321652,96.9419847 C136.42854,96.4381677 137.699897,96.4381677 138.806785,96.9419847 L139.968496,97.5663872 C140.921695,98.0421224 141.577019,97.5663872 141.398294,96.5257164 L141.159995,95.2174446 C141.02321,94.0143523 141.414202,92.8109797 142.232343,91.9170317 L143.185542,90.9952947 C143.960016,90.222225 143.721716,89.4788887 142.649368,89.3302215 L141.606807,89.1518208 C140.417476,88.8933691 139.391082,88.1492343 138.776998,87.1002127 L138.062098,85.9108747 Z" id="Path" stroke="#191816" fill="#FFFACF" fill-rule="nonzero"></path>
                    <line x1="84.3255152" y1="76.9313728" x2="123.734329" y2="76.9313728" id="Path" stroke="#191816" stroke-linecap="round" stroke-linejoin="round"></line>
                    <line x1="90.2532203" y1="88.7355525" x2="117.836411" y2="88.7355525" id="Path" stroke="#191816" stroke-linecap="round" stroke-linejoin="round"></line>
                    <line x1="76.461625" y1="108.389363" x2="131.628006" y2="108.389363" id="Path" stroke="#191816" stroke-linecap="round" stroke-linejoin="round"></line>
                </g>
            </g>
        </g>
    </g>
</svg>