<?xml version="1.0" encoding="UTF-8"?>
<svg width="30px" height="30px" viewBox="0 0 30 30" version="1.1" xmlns="http://www.w3.org/2000/svg" xmlns:xlink="http://www.w3.org/1999/xlink">
    <title>B021A098-73D9-4BDE-9500-8BE91530B8FD</title>
    <g id="Page-1" stroke="none" stroke-width="1" fill="none" fill-rule="evenodd">
        <g id="Visual-Design---Raffle" transform="translate(-1029.000000, -322.000000)" fill="#4967B2">
            <g id="Cover-5" transform="translate(0.000000, -10.000000)">
                <g id="Group-4" transform="translate(247.000000, 276.000000)">
                    <g id="Group">
                        <g id="Social-Network/Facebook" transform="translate(782.000000, 56.000000)">
                            <path d="M27,0 C28.6568542,0 30,1.34314575 30,3 L30,27 C30,28.6568542 28.6568542,30 27,30 L19.5,30 L19.5,18.7058824 L23.3443454,18.7058824 L23.961093,14.4705882 L19.5,14.4705882 L19.5,12.6607059 C19.5,11.0371765 19.9579975,10.2352941 21.5085126,10.2352941 L21.5085126,10.2352941 L24,10.2352941 L24,6.18494118 C23.5619363,6.12705882 22.6368149,6 20.887442,6 C17.2345093,6 15,7.89035294 15,12.1962353 L15,12.1962353 L15,14.4705882 L10.5,14.4705882 L10.5,18.7058824 L15,18.7058824 L15,30 L3,30 C1.34314575,30 0,28.6568542 0,27 L0,3 C0,1.34314575 1.34314575,0 3,0 L27,0 Z" id="Facebook"></path>
                        </g>
                    </g>
                </g>
            </g>
        </g>
    </g>
</svg>