<?xml version="1.0" encoding="UTF-8"?>
<svg width="100px" height="50px" viewBox="0 0 100 50" version="1.1" xmlns="http://www.w3.org/2000/svg" xmlns:xlink="http://www.w3.org/1999/xlink">
    <title>0E3874DE-782E-4250-B19B-E4EBACAAC200</title>
    <g id="Page-1" stroke="none" stroke-width="1" fill="none" fill-rule="evenodd">
        <g id="Visual-Design---Raffle" transform="translate(-282.000000, -295.000000)" fill="#0091FF">
            <g id="Cover-5" transform="translate(0.000000, -10.000000)">
                <g id="Group-4" transform="translate(247.000000, 276.000000)">
                    <g id="Group">
                        <path d="M88.8953147,29.1689879 C89.2235788,29.1161776 89.7708855,30.3254135 90.0973492,30.2185926 C90.4430167,30.0997695 90.9261109,29.082571 91.3972028,29.1431828 C91.5988422,29.169588 92.3993983,30.7725007 92.3993983,30.7725007 C98.8482565,31.0905628 106.80941,38.9064876 107.83501,39.6974419 C108.328306,40.0791164 110.416713,42.2395379 114.233458,43.9132644 C115.802764,44.6021988 117.379272,44.8980565 118.840557,44.7894353 C120.790937,44.6490079 122.972363,42.9362738 124.313625,40.6036187 C125.996353,37.6858495 126.710492,32.6028578 131.56604,29.7216957 C132.245972,29.318417 133.785873,28.4170412 134.676446,29.5530628 C135.392986,30.4730423 134.800071,31.9913385 134.055325,32.7180803 C133.583033,33.1771698 132.728466,33.6416605 131.101549,34.40801 C130.550641,34.6702611 129.651666,35.3429924 129.301198,35.6172459 C127.557858,36.9441048 126.295211,39.959093 124.890937,43.260337 C124.890937,43.260337 124.29142,44.8824535 121.652706,46.6269938 C121.206819,46.91505 121.607697,47.161098 122.093792,47.7822192 C122.714913,48.6049797 123.961956,51.9554334 123.799924,57.0540281 C123.774119,57.9590047 124.140191,58.3520813 124.552471,59.0932259 C125.26541,60.3714753 126.677486,60.0858196 126.641479,61.7631468 C126.593469,64.0147861 128.257594,64.4942797 127.72349,65.5336824 C127.333414,66.2910302 127.46904,67.0261736 127.47024,67.7655179 C127.47024,68.1381906 127.67188,68.6830969 126.900129,68.6434891 C123.735712,68.4526519 123.946953,64.2086239 124.006365,62.747939 C124.056775,62.5547013 123.911546,62.2090338 123.886941,62.1922305 C123.729711,62.0788084 121.759526,60.5461094 121.628101,60.415884 C119.234834,57.9824092 117.657126,55.7937822 116.775554,53.5457437 C116.19104,52.0466512 115.589723,50.5685628 114.562322,49.6185775 C113.411298,48.5689727 112.002223,47.9784575 110.764181,47.970656 C101.961664,47.9256472 100.14991,44.0638938 97.7554433,42.1393183 C97.6828291,42.086508 97.4643865,41.9628839 97.3377618,41.9520818 C97.2033356,41.9622838 97.0995153,42.1207147 97.0118982,42.1945291 C96.088318,43.1637182 95.1557361,43.4799799 93.9038919,43.4799799 C90.9297116,43.4799799 87.7298873,40.8730713 87.1663774,41.4539846 C86.7360935,41.907073 87.1099664,42.8396549 86.3190121,42.9956854 C85.1745888,43.2249301 83.9911579,42.0955098 84.0847762,41.1389231 C84.25821,39.4255889 86.0099518,38.923891 87.5474518,38.7486568 C88.8203001,38.6142306 89.8585026,38.9622985 90.0967491,38.9893038 C90.8054874,39.0889232 90.9297116,38.2307558 90.813889,37.6762476 C90.6812631,37.0761305 90.1213539,36.950706 89.5362398,36.7766721 C88.8245009,36.5636305 88.0323464,37.155346 87.5012427,36.9747107 C86.8765209,36.7508671 86.8273113,36.432805 86.313611,35.9731153 C85.6546825,35.4006036 84.8949343,35.2463735 84.8973347,34.4392161 C84.8973347,33.6914702 85.8053119,33.6308584 86.0639623,32.9455247 C86.1959881,32.6022577 86.1587808,32.2445879 86.2758037,32.0363473 C86.5830636,31.4770382 87.1585759,31.5034433 87.6224664,31.0515551 C88.2531894,30.4226324 88.5682509,29.2181975 88.8953147,29.1689879 L88.8953147,29.1689879 Z M60.5013752,75.8100873 C61.1110941,75.7950844 61.627795,75.2969872 61.6271948,74.6812671 L61.6325959,54.562342 L68.2578885,54.562342 L68.2578885,76.7390686 C68.2578885,77.8258806 67.3877187,78.7128536 66.3003065,78.7128536 L54.7108455,78.7128536 C53.6294345,78.7128536 52.7490628,77.8264807 52.7490628,76.7390686 L52.7490628,54.562342 L59.3797564,54.562342 L59.3785561,74.6812671 C59.3785561,75.2969872 59.8940567,75.7950844 60.5013752,75.8100873 L60.5013752,75.8100873 Z M72.6663485,54.562342 L92.7384645,54.562342 C93.3116525,54.5632959 93.8609675,54.7919915 94.2654845,55.1980843 C94.6700016,55.6041771 94.8965598,56.154377 94.8952906,56.7275644 L94.8952906,78.7128536 L88.2573903,78.7128536 L88.2573903,58.5465193 C88.2525893,57.9283987 87.7460905,57.4387032 87.133371,57.4387032 C86.5146503,57.4387032 86.0189535,57.9163963 86.0093517,58.5291159 L86.0093517,78.7134538 L79.4008624,78.7134538 L79.4008624,58.529716 C79.3864596,57.9169965 78.8895626,57.4393033 78.2702418,57.4393033 C77.9745269,57.4372277 77.6901253,57.5528359 77.4797276,57.7606445 C77.2693298,57.9684531 77.150209,58.2514015 77.148623,58.5471194 L77.148623,78.7128536 L70.511318,78.7128536 L70.511318,56.7275644 C70.5095749,56.154543 70.735732,55.6043381 71.1399633,55.1981932 C71.5441946,54.7920483 72.0933252,54.5632951 72.6663485,54.562342 Z M48.3261999,72.6444697 L41.627693,72.6444697 L41.627693,78.7128536 L35,78.7128536 L35,54.562342 L48.3682081,54.562342 C49.5648415,54.562342 50.4992339,55.5351318 50.4992339,56.7371663 L50.4992339,70.4666448 C50.5009792,71.0439442 50.2727538,71.5981744 49.8649904,72.0068388 C49.4572269,72.4155031 48.9035017,72.6449511 48.3261999,72.6444697 Z M43.8763317,58.5885275 C43.8804958,58.2871914 43.7645654,57.9965867 43.5541307,57.7808601 C43.3436959,57.5651335 43.0560595,57.4420229 42.7547129,57.4387032 L41.627693,57.4387032 L41.627693,69.6540863 L42.7547129,69.6540863 C43.3386268,69.6540863 43.8817328,69.1895957 43.8763317,68.5192649 L43.8763317,58.5885275 L43.8763317,58.5885275 Z M106.022056,78.7128536 L106.022056,72.6492707 L103.767416,72.6492707 L103.767416,78.7128536 L97.1445241,78.7128536 L97.1445241,56.7275644 C97.1445241,55.5273303 98.1107126,54.562342 99.3001446,54.562342 L110.489928,54.562342 C111.063318,54.5628179 111.612973,54.7913411 112.017689,55.1975206 C112.422405,55.6037 112.648942,56.1541761 112.647357,56.7275644 L112.647357,78.7128536 L106.022056,78.7128536 L106.022056,78.7128536 Z M106.022056,69.6588872 L106.022056,58.5381176 C106.005853,57.9235978 105.509556,57.4507038 104.891435,57.4507038 C104.277684,57.4496471 103.776933,57.9418421 103.767416,58.555521 L103.767416,69.6588872 L106.022056,69.6588872 Z" id="Logo"></path>
                    </g>
                </g>
            </g>
        </g>
    </g>
</svg>