<?xml version="1.0" encoding="UTF-8"?>
<svg width="30px" height="30px" viewBox="0 0 30 30" version="1.1" xmlns="http://www.w3.org/2000/svg" xmlns:xlink="http://www.w3.org/1999/xlink">
    <title>A0610286-861A-40D0-AC85-8C38390BE49C</title>
    <g id="Page-1" stroke="none" stroke-width="1" fill="none" fill-rule="evenodd">
        <g id="Visual-Design---Raffle" transform="translate(-1079.000000, -322.000000)" fill="#2DB0E3">
            <g id="Cover-5" transform="translate(0.000000, -10.000000)">
                <g id="Group-4" transform="translate(247.000000, 276.000000)">
                    <g id="Group">
                        <g id="Social-Network/Twitter" transform="translate(832.000000, 56.000000)">
                            <path d="M27,3.46389584e-14 C28.6568542,3.46389584e-14 30,1.34314575 30,3 L30,27 C30,28.6568542 28.6568542,30 27,30 L3,30 C1.34314575,30 1.86517468e-14,28.6568542 1.86517468e-14,27 L1.86517468e-14,3 C1.86517468e-14,1.34314575 1.34314575,3.46389584e-14 3,3.46389584e-14 L27,3.46389584e-14 Z M19.03871,6.75 C16.65934,6.75 14.730645,8.61561125 14.730645,10.9154125 C14.730645,11.2418359 14.7694127,11.5604501 14.8421022,11.8642269 C11.2617399,11.6908633 8.08763124,10.0321951 5.96186685,7.51139429 C5.591958,8.12675706 5.37954309,8.84207724 5.37954309,9.6065952 C5.37954309,11.0512921 6.13955232,12.3265299 7.29531556,13.0730868 C6.58941964,13.0512211 5.92471443,12.8638009 5.344006,12.552215 L5.344006,12.6045364 L5.344006,12.6045364 C5.344006,14.6232074 6.82848737,16.306865 8.79998846,16.6887335 C8.43896389,16.7840054 8.05774778,16.834765 7.66441675,16.834765 C7.38738895,16.834765 7.11682243,16.8082138 6.85433253,16.7605779 C7.40273451,18.4153415 8.99382716,19.6202967 10.8789085,19.6538762 C9.40492673,20.7713687 7.54730587,21.4374911 5.52815276,21.4374911 C5.18085843,21.4374911 4.8376024,21.4179682 4.5,21.3789223 C6.4068882,22.5604501 8.67076266,23.25 11.104246,23.25 C19.0290181,23.25 23.361313,16.9027048 23.361313,11.3980193 C23.361313,11.2176274 23.3572747,11.0380165 23.3491981,10.8591864 C24.1915888,10.2711558 24.9225222,9.53787449 25.5,8.70307397 C24.7270682,9.03496379 23.8967924,9.25830612 23.0253259,9.35904444 C23.9153686,8.84363907 24.5978424,8.02758058 24.9192916,7.05455772 C24.0874005,7.53169814 23.1650513,7.87842539 22.1829353,8.06584552 C21.3970809,7.25603436 20.2776624,6.75 19.03871,6.75 Z" id="Twitter"></path>
                        </g>
                    </g>
                </g>
            </g>
        </g>
    </g>
</svg>