<?xml version="1.0" encoding="UTF-8"?>
<svg width="561px" height="510px" viewBox="0 0 561 510" version="1.1" xmlns="http://www.w3.org/2000/svg" xmlns:xlink="http://www.w3.org/1999/xlink">
    <title>3B763DE1-99A1-4355-9C9B-B993B7545DF8</title>
    <g id="Page-1" stroke="none" stroke-width="1" fill="none" fill-rule="evenodd">
        <g id="Visual-Design---Landing" transform="translate(-150.000000, -2391.000000)" fill-rule="nonzero">
            <g id="Call-to-action-19" transform="translate(0.000000, 2287.000000)">
                <g id="undraw_placeholders_rklh" transform="translate(150.000000, 104.000000)">
                    <polygon id="Path" fill="#2A2B92" points="552.711813 510 0 510 0 508 553 508"></polygon>
                    <path d="M409.35715,216 L212.64285,216 C210.631938,215.997636 209.002361,214.366075 209,212.352714 L209,122.647286 C209.002361,120.633925 210.631938,119.002364 212.64285,119 L409.35715,119 C411.36806,119.002368 412.997635,120.633927 413,122.647286 L413,212.352714 C412.997635,214.366073 411.36806,215.997632 409.35715,216 Z M212.64285,120.458914 C211.436262,120.460233 210.45714,121.439229 210.45714,122.647286 L210.45714,212.352714 C210.45714,213.560771 211.436262,214.539767 212.64285,214.541086 L409.35715,214.541086 C410.563738,214.539767 411.54286,213.560771 411.54286,212.352714 L411.54286,122.647286 C411.54286,121.439229 410.563738,120.460233 409.35715,120.458914 L212.64285,120.458914 Z" id="Shape" fill="#3F3D56"></path>
                    <circle id="Oval" fill="#FFDD62" cx="239" cy="147" r="15"></circle>
                    <path d="M274.543605,136 C273.138811,136 272,137.119288 272,138.5 C272,139.880712 273.138811,141 274.543605,141 L394.456395,141 C395.861189,141 397,139.880712 397,138.5 C397,137.119288 395.861189,136 394.456395,136 L274.543605,136 Z" id="Path" fill="#E6E6E6"></path>
                    <path d="M274.557692,152 C273.145118,152 272,153.119288 272,154.5 C272,155.880712 273.145118,157 274.557692,157 L326.442308,157 C327.854882,157 329,155.880712 329,154.5 C329,153.119288 327.854882,152 326.442308,152 L274.557692,152 Z" id="Path" fill="#E6E6E6"></path>
                    <path d="M227.520346,176 C225.579444,176 224,177.12165 224,178.5 C224,179.87835 225.579444,181 227.520346,181 L393.479646,181 C395.420556,181 397,179.87835 397,178.5 C397,177.12165 395.420556,176 393.479646,176 L227.520346,176 Z" id="Path" fill="#E6E6E6"></path>
                    <path d="M227.520346,192 C225.579444,192 224,193.12165 224,194.5 C224,195.87835 225.579444,197 227.520346,197 L393.479646,197 C395.420556,197 397,195.87835 397,194.5 C397,193.12165 395.420556,192 393.479646,192 L227.520346,192 Z" id="Path" fill="#E6E6E6"></path>
                    <path d="M557.35715,97 L360.64285,97 C358.631938,96.9976365 357.002361,95.3660745 357,93.3527138 L357,3.64728622 C357.002361,1.63392549 358.631938,0.00236354537 360.64285,0 L557.35715,0 C559.36806,0.00236755597 560.997635,1.63392715 561,3.64728622 L561,93.3527138 C560.997635,95.3660729 559.36806,96.9976324 557.35715,97 L557.35715,97 Z M360.64285,1.45891449 C359.436262,1.46023313 358.45714,2.43922851 358.45714,3.64728622 L358.45714,93.3527138 C358.45714,94.5607715 359.436262,95.5397669 360.64285,95.5410855 L557.35715,95.5410855 C558.563738,95.5397669 559.54286,94.5607715 559.54286,93.3527138 L559.54286,3.64728622 C559.54286,2.43922851 558.563738,1.46023313 557.35715,1.45891449 L360.64285,1.45891449 Z" id="Shape" fill="#3F3D56"></path>
                    <circle id="Oval" fill="#FFDD62" cx="386" cy="28" r="15"></circle>
                    <path d="M420.543605,18 C419.138811,18 418,19.1192881 418,20.5 C418,21.8807119 419.138811,23 420.543605,23 L540.456395,23 C541.861189,23 543,21.8807119 543,20.5 C543,19.1192881 541.861189,18 540.456395,18 L420.543605,18 Z" id="Path" fill="#E6E6E6"></path>
                    <path d="M421.557692,33 C420.145118,33 419,34.1192881 419,35.5 C419,36.8807119 420.145118,38 421.557692,38 L473.442308,38 C474.854882,38 476,36.8807119 476,35.5 C476,34.1192881 474.854882,33 473.442308,33 L421.557692,33 Z" id="Path" fill="#E6E6E6"></path>
                    <path d="M373.520346,57 C371.579444,57 370,58.12165 370,59.5 C370,60.87835 371.579444,62 373.520346,62 L539.479646,62 C541.420556,62 543,60.87835 543,59.5 C543,58.12165 541.420556,57 539.479646,57 L373.520346,57 Z" id="Path" fill="#E6E6E6"></path>
                    <path d="M373.520346,73 C371.579444,73 370,74.12165 370,75.5 C370,76.87835 371.579444,78 373.520346,78 L539.479646,78 C541.420556,78 543,76.87835 543,75.5 C543,74.12165 541.420556,73 539.479646,73 L373.520346,73 Z" id="Path" fill="#E6E6E6"></path>
                    <path d="M557.35715,334 L360.64285,334 C358.631938,333.997636 357.002361,332.366075 357,330.352714 L357,240.647286 C357.002361,238.633925 358.631938,237.002364 360.64285,237 L557.35715,237 C559.36806,237.002368 560.997635,238.633927 561,240.647286 L561,330.352714 C560.997635,332.366073 559.36806,333.997632 557.35715,334 L557.35715,334 Z M360.64285,238.458914 C359.436262,238.460233 358.45714,239.439229 358.45714,240.647286 L358.45714,330.352714 C358.45714,331.560771 359.436262,332.539767 360.64285,332.541086 L557.35715,332.541086 C558.563738,332.539767 559.54286,331.560771 559.54286,330.352714 L559.54286,240.647286 C559.54286,239.439229 558.563738,238.460233 557.35715,238.458914 L360.64285,238.458914 Z" id="Shape" fill="#3F3D56"></path>
                    <circle id="Oval" fill="#FFDD62" cx="386" cy="266" r="15"></circle>
                    <path d="M420.543605,255 C419.138811,255 418,256.119288 418,257.5 C418,258.880712 419.138811,260 420.543605,260 L540.456395,260 C541.861189,260 543,258.880712 543,257.5 C543,256.119288 541.861189,255 540.456395,255 L420.543605,255 Z" id="Path" fill="#E6E6E6"></path>
                    <path d="M421.557692,271 C420.145118,271 419,272.119288 419,273.5 C419,274.880712 420.145118,276 421.557692,276 L473.442308,276 C474.854882,276 476,274.880712 476,273.5 C476,272.119288 474.854882,271 473.442308,271 L421.557692,271 Z" id="Path" fill="#E6E6E6"></path>
                    <path d="M373.520346,295 C371.579444,295 370,296.12165 370,297.5 C370,298.87835 371.579444,300 373.520346,300 L539.479646,300 C541.420556,300 543,298.87835 543,297.5 C543,296.12165 541.420556,295 539.479646,295 L373.520346,295 Z" id="Path" fill="#E6E6E6"></path>
                    <path d="M373.520346,310 C371.579444,310 370,311.12165 370,312.5 C370,313.87835 371.579444,315 373.520346,315 L539.479646,315 C541.420556,315 543,313.87835 543,312.5 C543,311.12165 541.420556,310 539.479646,310 L373.520346,310 Z" id="Path" fill="#E6E6E6"></path>
                    <path d="M84.7756037,292.842688 L78.0983141,303.02421 C76.9715305,305.060458 76.6985485,307.469115 77.3404994,309.710788 C77.9824504,311.952462 79.4856974,313.839851 81.5136035,314.950296 L81.5136035,314.950296 C84.0537749,316.341249 87.1136306,316.350363 89.6618437,314.974566 C92.2100568,313.598768 93.9071875,311.021326 94.1812167,308.110966 L93.0855062,298.673161 L98.2280461,237.482491 L107,197.234166 L88.7874087,192 L80.3099991,237.260641 L84.7756037,292.842688 Z" id="Path" fill="#9F616A"></path>
                    <path d="M180,485.170907 L162.11111,485.943754 L121.95224,349.218077 L78.0569675,487 L61,486.716594 L88.5663695,325.17563 C80.4558409,303.092803 85.719642,282.921044 98.2887668,263.793186 L100.178867,251.859804 L148.888892,251 L153.466329,296.268835 L180,485.170907 Z" id="Path" fill="#2F2E41"></path>
                    <path d="M167.758857,509.821701 C170.252934,510.960814 172.650244,501.459217 174.44586,503.800933 C181.391083,512.858319 194.914716,509.732176 194.447203,508.290686 C195.405011,507.982589 196.194918,507.295357 196.632984,506.389024 C197.07105,505.48269 197.119041,504.436357 196.765782,503.493677 L196.765782,503.493677 C196.341126,502.360467 195.386965,501.508542 194.213657,501.215008 L187.955396,499.649342 L178.129026,482.356314 L167.420019,481 L167.149538,481.442657 C162.961336,488.197421 161.883177,496.430036 164.190581,504.036676 C165.08117,506.892263 166.29341,509.152412 167.758857,509.821701 Z" id="Path" fill="#2F2E41"></path>
                    <path d="M65.7588532,509.821701 C68.2529308,510.960814 70.6502338,501.459217 72.4458569,503.800933 C79.391081,512.858319 92.9147158,509.732176 92.4472027,508.290686 C93.4050107,507.982589 94.1949184,507.295357 94.6329842,506.389024 C95.0710501,505.48269 95.119041,504.436357 94.7657816,503.493677 L94.7657816,503.493677 C94.3411284,502.360468 93.3869698,501.508543 92.2136638,501.215008 L85.9553951,499.649342 L76.1290312,482.356314 L65.4200223,481 L65.1495336,481.442657 C60.9613382,488.197424 59.8831791,496.430036 62.1905765,504.036676 C63.0811584,506.892263 64.2934058,509.152412 65.7588532,509.821701 Z" id="Path" fill="#2F2E41"></path>
                    <path d="M76,228.114508 L90.0085553,180.545226 C91.4001111,173.472532 98.291881,168.86116 105.401756,170.245437 L105.401756,170.245437 C108.816039,170.910191 111.825022,172.896945 113.766761,175.768635 C115.7085,178.640326 116.423939,182.161718 115.755689,185.558147 L104.30269,229 C96.0047506,220.30797 86.4698043,220.75711 76,228.114508 Z" id="Path" fill="#FFDD62"></path>
                    <path d="M199.755951,183.180284 L173,189 L174.150387,168.014727 L196.00771,168.014727 L210.092624,125.92299 L209.907793,115.030255 C209.318093,112.995065 209.682205,110.806485 210.900436,109.063747 C212.118667,107.321008 214.063375,106.206708 216.202101,106.025941 L216.202101,106.025941 C218.668954,105.817445 221.070853,106.876137 222.558496,108.827669 C224.046139,110.779201 224.40987,113.348538 223.521074,115.627173 L218.707191,128.536696 L212.11313,168.014734 L212.11313,168.014734 C212.113134,175.302757 206.973558,181.610387 199.755951,183.180284 L199.755951,183.180284 Z" id="Path" fill="#9F616A"></path>
                    <circle id="Oval" fill="#9F616A" cx="127" cy="131" r="23"></circle>
                    <path d="M131.433333,179.424999 L98,180 C103.339265,163.011211 107.006691,147.126891 106.5,134 L132,134 C130.305939,149.083789 130.116089,164.302532 131.433333,179.424999 L131.433333,179.424999 Z" id="Path" fill="#9F616A"></path>
                    <path d="M153.052627,254.65057 L97.3880006,263 C88.5944196,237.829007 88.3355209,208.780143 93.0275546,187.282251 C91.8590784,176.909474 95.3974987,166.557554 102.694794,159 L102.694794,159 L129.744132,161.838292 L129.744132,161.838292 C136.100618,163.231554 141.126609,168.025483 142.751374,174.244962 C153.18783,188.515919 160.833606,202.019413 152.377812,211.094651 L153.052627,254.65057 Z" id="Path" fill="#FFDD62"></path>
                    <path d="M186,193 L136.963623,188.407405 C129.804012,188.407405 124,182.495906 124,175.203702 L124,175.203702 C124,167.911499 129.804012,162 136.963623,162 L181.490911,164.870369 C174.591798,174.756435 176.839604,184.087813 186,193 Z" id="Path" fill="#FFDD62"></path>
                    <path d="M95.9495351,173.981843 L79,173.546339 C81.705484,149.852219 83.1144659,123.150849 96.9383517,109.425333 C98.6973503,107.678847 100.276281,105.870207 101.852167,104.05847 C104.990298,100.450734 111.640688,98.3796933 118.43993,99.1658447 L121.771579,99.5510584 C132.708893,100.815667 155.650353,108.657085 154.985871,115.506976 C154.647514,118.994936 154.419179,125.270126 146.117735,125.349091 C139.413259,134.344344 127.424574,139.338871 132.430294,147.883894 C142.445382,156.817293 129.413757,163.899605 118.904672,169.236201 C112.461691,172.507986 104.288672,174.19611 95.9495351,173.981843 Z" id="Path" fill="#2F2E41"></path>
                </g>
            </g>
        </g>
    </g>
</svg>